<?xml version="1.0" encoding="UTF-8"?>
<svg id="Layer_1" data-name="Layer 1" xmlns="http://www.w3.org/2000/svg" viewBox="0 0 392.17 268.6">
  <defs>
    <style>
      .cls-1, .cls-2, .cls-3, .cls-4, .cls-5 {
        stroke: #b8945e;
        stroke-miterlimit: 10;
      }

      .cls-1, .cls-5 {
        fill: #b8945e;
      }

      .cls-2 {
        stroke-width: 6px;
      }

      .cls-2, .cls-3, .cls-4 {
        fill: none;
      }

      .cls-3 {
        stroke-width: 3px;
      }

      .cls-4 {
        stroke-width: 4px;
      }

      .cls-6 {
        fill: #10472b;
      }

      .cls-5 {
        stroke-width: 8px;
      }
    </style>
  </defs>
  <rect class="cls-6" width="392.17" height="268.6"/>
  <g>
    <path class="cls-2" d="M119.54,103.99c-1.72-.18-8.7-1.11-14.12-6.69-6.03-6.2-5.64-13.52-5.54-14.89,13.2,0,138.77,0,188.35,0,.05,1.26.08,9.54-6.55,15.99-6.2,6.03-13.52,5.64-14.89,5.54"/>
    <path class="cls-4" d="M139.68,81.03v-29.87s6.13-7.28,7.79-13.66,1.28-23.62,1.28-23.62c0,0,2.68-3.06,6.38,0"/>
    <path class="cls-4" d="M163.94,81.03v-29.87s-6.13-7.28-7.79-13.66-1.28-23.62-1.28-23.62c0,0-2.68-3.06-6.38,0"/>
    <g>
      <path class="cls-3" d="M214.22,80.85s1.59-.03,3.89-1.24,18.02-10.78,10.78-19.25c-3.14-3.67-22.72-25.04-22.72-25.04h53.19s-21.87,24.77-21.87,24.77c0,0-4.48,4.31-.1,9.41,4.37,5.1,8.04,10.92,15.47,11.47s-38.64-.12-38.64-.12Z"/>
      <polygon class="cls-3" points="233.54 57.19 216.57 40 248.16 39.99 233.54 57.19"/>
      <polygon class="cls-3" points="224.56 80.62 233.72 72.39 239.76 80.62 224.56 80.62"/>
    </g>
    <path class="cls-2" d="M266.79,103.99H120.8v82.47h22.42c-.31-1.26-.49-2.56-.49-3.91v-38.81c0-9.1,7.37-16.47,16.47-16.47h69.32c9.1,0,16.47,7.37,16.47,16.47v38.81c0,1.35-.18,2.65-.49,3.91h22.28v-82.47Z"/>
  </g>
  <path class="cls-2" d="M244.74,143.73c0-9.1-7.37-16.47-16.47-16.47h-69.32c-9.1,0-16.47,7.37-16.47,16.47v38.81c0,1.35.18,2.65.49,3.91h101.28c.31-1.26.49-2.56.49-3.91v-38.81Z"/>
  <g>
    <g>
      <path class="cls-1" d="M121.97,249.31h4.75v2.81h-16.35v-2.81h5.27v-24.33h-5.27v-2.81h11.6v5.1h.14c.94-1.95,2.2-3.44,3.8-4.48,1.59-1.04,3.64-1.56,6.15-1.56s4.63.56,6.08,1.69c1.45,1.12,2.41,2.86,2.88,5.2h.14c.94-2.27,2.24-3.99,3.92-5.15,1.68-1.16,3.81-1.74,6.42-1.74,3.16,0,5.51.83,7.05,2.48,1.53,1.65,2.3,4.01,2.3,7.08v18.53h5.1v2.81h-16.17v-2.81h4.75v-19.51c0-1.85-.42-3.22-1.27-4.1s-2.04-1.32-3.59-1.32c-1.12,0-2.19.25-3.18.76-1,.5-1.88,1.28-2.64,2.34-.76,1.05-1.36,2.4-1.79,4.04-.43,1.64-.65,3.59-.65,5.84v11.95h4.75v2.81h-15.82v-2.81h4.75v-19.55c0-1.83-.42-3.18-1.27-4.06s-2.04-1.32-3.59-1.32c-1.12,0-2.19.25-3.18.76-1,.5-1.88,1.28-2.64,2.34-.76,1.05-1.36,2.4-1.79,4.04-.43,1.64-.65,3.59-.65,5.84v11.95Z"/>
      <path class="cls-1" d="M198.99,225.37c2.34.35,4.34.9,5.99,1.63s3,1.65,4.04,2.72c1.04,1.08,1.8,2.3,2.27,3.66.47,1.36.7,2.82.7,4.39,0,1.83-.33,3.6-.98,5.33-.66,1.72-1.77,3.25-3.34,4.59-1.57,1.34-3.64,2.41-6.22,3.22-2.58.81-5.8,1.21-9.67,1.21h-21.97v-2.81h7.03v-45.46h-7.03v-2.81h21.09c3.56,0,6.57.3,9.04.91s4.45,1.45,5.98,2.53c1.52,1.08,2.62,2.34,3.29,3.8s1,3.02,1,4.71c0,1.36-.21,2.67-.63,3.92s-1.08,2.42-1.99,3.5c-.9,1.08-2.06,2.03-3.48,2.85-1.42.82-3.12,1.48-5.12,1.97v.14ZM183.7,224.21h4.15c2.79,0,5.13-.18,7.03-.53s3.42-.95,4.57-1.79c1.15-.84,1.97-1.96,2.46-3.36s.74-3.13.74-5.22c0-1.59-.16-2.98-.49-4.17-.33-1.18-.94-2.17-1.83-2.95-.89-.79-2.13-1.37-3.71-1.76s-3.64-.58-6.17-.58h-6.75v20.36ZM183.7,249.31h7.52c2.46,0,4.53-.19,6.21-.58,1.68-.39,3.02-1.03,4.04-1.92s1.75-2.06,2.2-3.5c.44-1.44.67-3.23.67-5.36,0-1.92-.21-3.57-.62-4.94-.41-1.37-1.17-2.5-2.29-3.39-1.11-.89-2.65-1.55-4.61-1.97-1.96-.42-4.49-.63-7.61-.63h-5.52v22.29Z"/>
      <path class="cls-1" d="M248.95,252.12c-.98.19-1.9.3-2.74.35s-1.51.07-2,.07c-1.24,0-2.27-.1-3.08-.3s-1.45-.49-1.92-.86c-.47-.38-.81-.83-1.02-1.37s-.34-1.14-.39-1.79h-.18c-.66.91-1.36,1.69-2.11,2.32-.75.63-1.54,1.14-2.36,1.51-.82.38-1.66.64-2.51.81-.86.16-1.72.25-2.58.25-1.43,0-2.71-.19-3.83-.58s-2.07-.93-2.85-1.63-1.36-1.54-1.76-2.51c-.4-.97-.6-2.04-.6-3.22,0-3.26,1.6-5.74,4.8-7.44s7.81-2.61,13.83-2.72c.02-1.05.04-2,.05-2.85.01-.84.02-1.68.02-2.5,0-2.13-.44-3.63-1.32-4.48s-2.27-1.28-4.17-1.28c-1.27,0-2.4.14-3.39.42-1,.28-1.81.66-2.44,1.12.56.54.98,1.11,1.25,1.71.27.6.4,1.19.4,1.78,0,.98-.32,1.8-.95,2.46s-1.5.98-2.6.98c-.47,0-.93-.07-1.37-.21-.45-.14-.83-.36-1.16-.67-.33-.3-.59-.69-.79-1.14-.2-.46-.3-.99-.3-1.6,0-.96.26-1.89.79-2.79s1.31-1.71,2.36-2.41c1.04-.7,2.34-1.27,3.9-1.69,1.56-.42,3.38-.63,5.47-.63,1.69,0,3.18.16,4.48.49s2.4.87,3.3,1.63c.9.76,1.58,1.78,2.04,3.04s.69,2.84.69,4.71c0,.47,0,1.24-.02,2.3-.01,1.07-.03,2.24-.05,3.53-.02,1.29-.04,2.6-.05,3.92-.01,1.32-.02,2.49-.02,3.5s.02,1.89.07,2.58c.05.69.16,1.24.35,1.65.19.41.47.7.84.88.37.18.9.26,1.58.26.58,0,1.36-.07,2.32-.21v2.6ZM237.67,237.64c-2.55.07-4.62.26-6.19.58-1.57.32-2.79.76-3.66,1.34-.87.57-1.45,1.27-1.76,2.09-.3.82-.46,1.76-.46,2.81,0,1.83.38,3.19,1.14,4.1.76.9,1.81,1.35,3.15,1.35.73,0,1.54-.15,2.44-.46.9-.3,1.75-.8,2.55-1.49.8-.69,1.46-1.6,1.99-2.72s.79-2.52.79-4.18v-3.41Z"/>
      <path class="cls-1" d="M269.69,252.12h-17.23v-2.81h5.27v-24.33h-5.27v-2.81h11.6v5.45h.14c.42-.91.94-1.75,1.56-2.51.62-.76,1.31-1.42,2.06-1.99.75-.56,1.55-1,2.39-1.3s1.7-.46,2.57-.46c1.41,0,2.57.41,3.48,1.23s1.37,1.96,1.37,3.41c0,1.29-.35,2.29-1.05,3.01s-1.62,1.07-2.74,1.07-2.07-.34-2.69-1.02c-.62-.68-.93-1.54-.93-2.57,0-.54.11-1.12.32-1.76-.91.33-1.76.85-2.55,1.56-.79.71-1.47,1.61-2.06,2.69-.59,1.08-1.04,2.33-1.37,3.74-.33,1.42-.49,2.99-.49,4.73v11.85h5.62v2.81Z"/>
    </g>
    <line class="cls-5" x1="5.05" y1="233.11" x2="88.8" y2="233.11"/>
    <line class="cls-5" x1="299.28" y1="233.11" x2="383.02" y2="233.11"/>
  </g>
</svg>